<?xml version="1.0" encoding="utf-8" ?>
<svg baseProfile="full" height="228" version="1.1" width="100%" xmlns="http://www.w3.org/2000/svg" xmlns:ev="http://www.w3.org/2001/xml-events" xmlns:xlink="http://www.w3.org/1999/xlink"><defs /><text style="font-size:20px; font-family:Courier" x="20" y="30">test</text><text style="font-size:10px; font-family:Courier" x="172" y="48">10</text><text style="font-size:10px; font-family:Courier" x="22" y="48">20</text><text style="font-size:10px; font-family:Courier" x="322" y="48">P</text><text style="font-size:10px; font-family:Courier" x="337" y="48">A</text><text style="font-size:10px; font-family:Courier" x="352" y="48">M</text><rect fill="#F5F500" height="15" width="15" x="20" y="50" /><text fill="black" style="font-size:15px; font-family:Courier" x="23" y="62">G</text><rect fill="#F5F500" height="15" width="15" x="35" y="50" /><text fill="black" style="font-size:15px; font-family:Courier" x="38" y="62">G</text><rect fill="#F5F500" height="15" width="15" x="50" y="50" /><text fill="black" style="font-size:15px; font-family:Courier" x="53" y="62">G</text><rect fill="#F5F500" height="15" width="15" x="65" y="50" /><text fill="black" style="font-size:15px; font-family:Courier" x="68" y="62">G</text><rect fill="#26A8FF" height="15" width="15" x="80" y="50" /><text fill="black" style="font-size:15px; font-family:Courier" x="83" y="62">C</text><rect fill="#26A8FF" height="15" width="15" x="95" y="50" /><text fill="black" style="font-size:15px; font-family:Courier" x="98" y="62">C</text><rect fill="#FF5454" height="15" width="15" x="110" y="50" /><text fill="black" style="font-size:15px; font-family:Courier" x="113" y="62">A</text><rect fill="#26A8FF" height="15" width="15" x="125" y="50" /><text fill="black" style="font-size:15px; font-family:Courier" x="128" y="62">C</text><rect fill="#00D118" height="15" width="15" x="140" y="50" /><text fill="black" style="font-size:15px; font-family:Courier" x="143" y="62">T</text><rect fill="#FF5454" height="15" width="15" x="155" y="50" /><text fill="black" style="font-size:15px; font-family:Courier" x="158" y="62">A</text><rect fill="#F5F500" height="15" width="15" x="170" y="50" /><text fill="black" style="font-size:15px; font-family:Courier" x="173" y="62">G</text><rect fill="#F5F500" height="15" width="15" x="185" y="50" /><text fill="black" style="font-size:15px; font-family:Courier" x="188" y="62">G</text><rect fill="#F5F500" height="15" width="15" x="200" y="50" /><text fill="black" style="font-size:15px; font-family:Courier" x="203" y="62">G</text><rect fill="#FF5454" height="15" width="15" x="215" y="50" /><text fill="black" style="font-size:15px; font-family:Courier" x="218" y="62">A</text><rect fill="#26A8FF" height="15" width="15" x="230" y="50" /><text fill="black" style="font-size:15px; font-family:Courier" x="233" y="62">C</text><rect fill="#FF5454" height="15" width="15" x="245" y="50" /><text fill="black" style="font-size:15px; font-family:Courier" x="248" y="62">A</text><rect fill="#F5F500" height="15" width="15" x="260" y="50" /><text fill="black" style="font-size:15px; font-family:Courier" x="263" y="62">G</text><rect fill="#F5F500" height="15" width="15" x="275" y="50" /><text fill="black" style="font-size:15px; font-family:Courier" x="278" y="62">G</text><rect fill="#FF5454" height="15" width="15" x="290" y="50" /><text fill="black" style="font-size:15px; font-family:Courier" x="293" y="62">A</text><rect fill="#00D118" height="15" width="15" x="305" y="50" /><text fill="black" style="font-size:15px; font-family:Courier" x="308" y="62">T</text><rect fill="#B3B3B3" height="15" width="15" x="320" y="50" /><text fill="black" style="font-size:15px; font-family:Courier" x="323" y="62">N</text><rect fill="#F5F500" height="15" width="15" x="335" y="50" /><text fill="black" style="font-size:15px; font-family:Courier" x="338" y="62">G</text><rect fill="#F5F500" height="15" width="15" x="350" y="50" /><text fill="black" style="font-size:15px; font-family:Courier" x="353" y="62">G</text><text style="font-size:15px; font-family:Courier" x="381" y="62">Reads</text><text style="font-size:15px; font-family:Courier" x="510" y="62">Mismatches</text><text style="font-size:15px; font-family:Courier" x="610" y="62">Coordinates</text><text style="font-size:15px; font-family:Courier" x="860" y="62">Annotation</text><text fill="black" style="font-size:10px; font-family:Courier" x="24.5" y="92">•</text><text fill="black" style="font-size:10px; font-family:Courier" x="39.5" y="92">•</text><text fill="black" style="font-size:10px; font-family:Courier" x="54.5" y="92">•</text><text fill="black" style="font-size:10px; font-family:Courier" x="69.5" y="92">•</text><text fill="black" style="font-size:10px; font-family:Courier" x="84.5" y="92">•</text><text fill="black" style="font-size:10px; font-family:Courier" x="99.5" y="92">•</text><text fill="black" style="font-size:10px; font-family:Courier" x="114.5" y="92">•</text><text fill="black" style="font-size:10px; font-family:Courier" x="129.5" y="92">•</text><text fill="black" style="font-size:10px; font-family:Courier" x="144.5" y="92">•</text><text fill="black" style="font-size:10px; font-family:Courier" x="159.5" y="92">•</text><text fill="black" style="font-size:10px; font-family:Courier" x="174.5" y="92">•</text><text fill="black" style="font-size:10px; font-family:Courier" x="189.5" y="92">•</text><text fill="black" style="font-size:10px; font-family:Courier" x="204.5" y="92">•</text><text fill="black" style="font-size:10px; font-family:Courier" x="219.5" y="92">•</text><text fill="black" style="font-size:10px; font-family:Courier" x="234.5" y="92">•</text><text fill="black" style="font-size:10px; font-family:Courier" x="249.5" y="92">•</text><text fill="black" style="font-size:10px; font-family:Courier" x="264.5" y="92">•</text><text fill="black" style="font-size:10px; font-family:Courier" x="279.5" y="92">•</text><text fill="black" style="font-size:10px; font-family:Courier" x="294.5" y="92">•</text><text fill="black" style="font-size:10px; font-family:Courier" x="309.5" y="92">•</text><text fill="black" style="font-size:15px; font-family:Courier" x="323" y="93">T</text><text fill="black" style="font-size:10px; font-family:Courier" x="339.5" y="92">•</text><text fill="black" style="font-size:10px; font-family:Courier" x="354.5" y="92">•</text><text fill="black" style="font-size:15px; font-family:Courier" x="380" y="94">6890</text><text fill="black" style="font-size:15px; font-family:Courier" x="540" y="94">0</text><text fill="black" style="font-size:15px; font-family:Courier" x="610" y="94">chr19:55115748-55115771(-)</text><text fill="black" style="font-size:15px; font-family:Courier" x="860" y="94">intron (PPP1R12C, intron 1 of 21)</text><text fill="black" style="font-size:10px; font-family:Courier" x="24.5" y="107">•</text><text fill="black" style="font-size:10px; font-family:Courier" x="39.5" y="107">•</text><text fill="black" style="font-size:10px; font-family:Courier" x="54.5" y="107">•</text><text fill="black" style="font-size:10px; font-family:Courier" x="69.5" y="107">•</text><text fill="black" style="font-size:10px; font-family:Courier" x="84.5" y="107">•</text><rect fill="#00D118" height="15" width="15" x="95" y="96" /><text fill="black" style="font-size:15px; font-family:Courier" x="98" y="108">T</text><rect fill="#00D118" height="15" width="15" x="110" y="96" /><text fill="black" style="font-size:15px; font-family:Courier" x="113" y="108">T</text><text fill="black" style="font-size:10px; font-family:Courier" x="129.5" y="107">•</text><text fill="black" style="font-size:10px; font-family:Courier" x="144.5" y="107">•</text><text fill="black" style="font-size:10px; font-family:Courier" x="159.5" y="107">•</text><rect fill="#FF5454" height="15" width="15" x="170" y="96" /><text fill="black" style="font-size:15px; font-family:Courier" x="173" y="108">A</text><text fill="black" style="font-size:10px; font-family:Courier" x="189.5" y="107">•</text><text fill="black" style="font-size:10px; font-family:Courier" x="204.5" y="107">•</text><text fill="black" style="font-size:10px; font-family:Courier" x="219.5" y="107">•</text><text fill="black" style="font-size:10px; font-family:Courier" x="234.5" y="107">•</text><text fill="black" style="font-size:10px; font-family:Courier" x="249.5" y="107">•</text><text fill="black" style="font-size:10px; font-family:Courier" x="264.5" y="107">•</text><text fill="black" style="font-size:10px; font-family:Courier" x="279.5" y="107">•</text><text fill="black" style="font-size:10px; font-family:Courier" x="294.5" y="107">•</text><text fill="black" style="font-size:10px; font-family:Courier" x="309.5" y="107">•</text><text fill="black" style="font-size:15px; font-family:Courier" x="323" y="108">G</text><text fill="black" style="font-size:10px; font-family:Courier" x="339.5" y="107">•</text><text fill="black" style="font-size:10px; font-family:Courier" x="354.5" y="107">•</text><text fill="black" style="font-size:15px; font-family:Courier" x="380" y="109">550</text><text fill="black" style="font-size:15px; font-family:Courier" x="540" y="109">3</text><text fill="black" style="font-size:15px; font-family:Courier" x="610" y="109">chr19:16064176-16064199(-)</text><text fill="black" style="font-size:15px; font-family:Courier" x="860" y="109">Intergenic (LINC01855)</text><rect fill="#00D118" height="15" width="15" x="20" y="111" /><text fill="black" style="font-size:15px; font-family:Courier" x="23" y="123">T</text><rect fill="#FF5454" height="15" width="15" x="35" y="111" /><text fill="black" style="font-size:15px; font-family:Courier" x="38" y="123">A</text><text fill="black" style="font-size:10px; font-family:Courier" x="54.5" y="122">•</text><text fill="black" style="font-size:10px; font-family:Courier" x="69.5" y="122">•</text><text fill="black" style="font-size:10px; font-family:Courier" x="84.5" y="122">•</text><text fill="black" style="font-size:10px; font-family:Courier" x="99.5" y="122">•</text><text fill="black" style="font-size:10px; font-family:Courier" x="114.5" y="122">•</text><rect fill="#FF5454" height="15" width="15" x="125" y="111" /><text fill="black" style="font-size:15px; font-family:Courier" x="128" y="123">A</text><text fill="black" style="font-size:10px; font-family:Courier" x="144.5" y="122">•</text><rect fill="#B3B3B3" height="15" width="15" x="155" y="111" /><text fill="black" style="font-size:15px; font-family:Courier" x="158" y="123">-</text><text fill="black" style="font-size:10px; font-family:Courier" x="174.5" y="122">•</text><text fill="black" style="font-size:10px; font-family:Courier" x="189.5" y="122">•</text><text fill="black" style="font-size:10px; font-family:Courier" x="204.5" y="122">•</text><text fill="black" style="font-size:10px; font-family:Courier" x="219.5" y="122">•</text><text fill="black" style="font-size:10px; font-family:Courier" x="234.5" y="122">•</text><text fill="black" style="font-size:10px; font-family:Courier" x="249.5" y="122">•</text><text fill="black" style="font-size:10px; font-family:Courier" x="264.5" y="122">•</text><text fill="black" style="font-size:10px; font-family:Courier" x="279.5" y="122">•</text><text fill="black" style="font-size:10px; font-family:Courier" x="294.5" y="122">•</text><text fill="black" style="font-size:10px; font-family:Courier" x="309.5" y="122">•</text><text fill="black" style="font-size:15px; font-family:Courier" x="323" y="123">A</text><text fill="black" style="font-size:10px; font-family:Courier" x="339.5" y="122">•</text><text fill="black" style="font-size:10px; font-family:Courier" x="354.5" y="122">•</text><text fill="black" style="font-size:15px; font-family:Courier" x="380" y="124">66</text><text fill="black" style="font-size:15px; font-family:Courier" x="540" y="124">3</text><text fill="black" style="font-size:15px; font-family:Courier" x="610" y="124">chr19:2571938-2571960(-)</text><text fill="black" style="font-size:15px; font-family:Courier" x="860" y="124">intron (GNG7, intron 2 of 4)</text><text fill="black" style="font-size:10px; font-family:Courier" x="24.5" y="137">•</text><text fill="black" style="font-size:10px; font-family:Courier" x="39.5" y="137">•</text><text fill="black" style="font-size:10px; font-family:Courier" x="54.5" y="137">•</text><text fill="black" style="font-size:10px; font-family:Courier" x="69.5" y="137">•</text><rect fill="#F5F500" height="15" width="15" x="80" y="126" /><text fill="black" style="font-size:15px; font-family:Courier" x="83" y="138">G</text><rect fill="#FF5454" height="15" width="15" x="95" y="126" /><text fill="black" style="font-size:15px; font-family:Courier" x="98" y="138">A</text><rect fill="#26A8FF" height="15" width="15" x="110" y="126" /><text fill="black" style="font-size:15px; font-family:Courier" x="113" y="138">C</text><rect fill="#FF5454" height="15" width="15" x="125" y="126" /><text fill="black" style="font-size:15px; font-family:Courier" x="128" y="138">A</text><rect fill="#F5F500" height="15" width="15" x="140" y="126" /><text fill="black" style="font-size:15px; font-family:Courier" x="143" y="138">G</text><text fill="black" style="font-size:10px; font-family:Courier" x="159.5" y="137">•</text><text fill="black" style="font-size:10px; font-family:Courier" x="174.5" y="137">•</text><text fill="black" style="font-size:10px; font-family:Courier" x="189.5" y="137">•</text><text fill="black" style="font-size:10px; font-family:Courier" x="204.5" y="137">•</text><text fill="black" style="font-size:10px; font-family:Courier" x="219.5" y="137">•</text><text fill="black" style="font-size:10px; font-family:Courier" x="234.5" y="137">•</text><text fill="black" style="font-size:10px; font-family:Courier" x="249.5" y="137">•</text><text fill="black" style="font-size:10px; font-family:Courier" x="264.5" y="137">•</text><text fill="black" style="font-size:10px; font-family:Courier" x="279.5" y="137">•</text><text fill="black" style="font-size:10px; font-family:Courier" x="294.5" y="137">•</text><text fill="black" style="font-size:10px; font-family:Courier" x="309.5" y="137">•</text><text fill="black" style="font-size:15px; font-family:Courier" x="323" y="138">G</text><text fill="black" style="font-size:10px; font-family:Courier" x="339.5" y="137">•</text><text fill="black" style="font-size:10px; font-family:Courier" x="354.5" y="137">•</text><text fill="black" style="font-size:10px; font-family:Courier" x="24.5" y="152">•</text><text fill="black" style="font-size:10px; font-family:Courier" x="39.5" y="152">•</text><text fill="black" style="font-size:10px; font-family:Courier" x="54.5" y="152">•</text><text fill="black" style="font-size:10px; font-family:Courier" x="69.5" y="152">•</text><rect fill="#FF5454" height="15" width="15" x="80" y="141" /><text fill="black" style="font-size:15px; font-family:Courier" x="83" y="153">A</text><text fill="black" style="font-size:10px; font-family:Courier" x="99.5" y="152">•</text><text fill="black" style="font-size:10px; font-family:Courier" x="114.5" y="152">•</text><rect fill="#F5F500" height="15" width="15" x="125" y="141" /><text fill="black" style="font-size:15px; font-family:Courier" x="128" y="153">G</text><rect fill="#B3B3B3" height="15" width="15" x="140" y="141" /><text fill="black" style="font-size:15px; font-family:Courier" x="143" y="153">-</text><text fill="black" style="font-size:10px; font-family:Courier" x="159.5" y="152">•</text><text fill="black" style="font-size:10px; font-family:Courier" x="174.5" y="152">•</text><text fill="black" style="font-size:10px; font-family:Courier" x="189.5" y="152">•</text><text fill="black" style="font-size:10px; font-family:Courier" x="204.5" y="152">•</text><text fill="black" style="font-size:10px; font-family:Courier" x="219.5" y="152">•</text><text fill="black" style="font-size:10px; font-family:Courier" x="234.5" y="152">•</text><text fill="black" style="font-size:10px; font-family:Courier" x="249.5" y="152">•</text><text fill="black" style="font-size:10px; font-family:Courier" x="264.5" y="152">•</text><text fill="black" style="font-size:10px; font-family:Courier" x="279.5" y="152">•</text><text fill="black" style="font-size:10px; font-family:Courier" x="294.5" y="152">•</text><text fill="black" style="font-size:10px; font-family:Courier" x="309.5" y="152">•</text><text fill="black" style="font-size:15px; font-family:Courier" x="323" y="153">G</text><text fill="black" style="font-size:10px; font-family:Courier" x="339.5" y="152">•</text><text fill="black" style="font-size:10px; font-family:Courier" x="354.5" y="152">•</text><text fill="black" style="font-size:15px; font-family:Courier" x="380" y="146">43</text><text fill="black" style="font-size:15px; font-family:Courier" x="540" y="146">5</text><text fill="black" style="font-size:15px; font-family:Courier" x="610" y="146">chr19:45929458-45929481(+)</text><text fill="black" style="font-size:15px; font-family:Courier" x="860" y="146">Intergenic (NANOS2)</text><text fill="black" style="font-size:23px; font-family:Courier" x="367" y="146">}</text><text fill="black" style="font-size:10px; font-family:Courier" x="24.5" y="167">•</text><rect fill="#26A8FF" height="15" width="15" x="35" y="156" /><text fill="black" style="font-size:15px; font-family:Courier" x="38" y="168">C</text><rect fill="#00D118" height="15" width="15" x="50" y="156" /><text fill="black" style="font-size:15px; font-family:Courier" x="53" y="168">T</text><text fill="black" style="font-size:10px; font-family:Courier" x="69.5" y="167">•</text><rect fill="#F5F500" height="15" width="15" x="80" y="156" /><text fill="black" style="font-size:15px; font-family:Courier" x="83" y="168">G</text><rect fill="#F5F500" height="15" width="15" x="95" y="156" /><text fill="black" style="font-size:15px; font-family:Courier" x="98" y="168">G</text><rect fill="#26A8FF" height="15" width="15" x="110" y="156" /><text fill="black" style="font-size:15px; font-family:Courier" x="113" y="168">C</text><text fill="black" style="font-size:10px; font-family:Courier" x="129.5" y="167">•</text><rect fill="#FF5454" height="15" width="15" x="140" y="156" /><text fill="black" style="font-size:15px; font-family:Courier" x="143" y="168">A</text><rect fill="#F5F500" height="15" width="15" x="155" y="156" /><text fill="black" style="font-size:15px; font-family:Courier" x="158" y="168">G</text><text fill="black" style="font-size:10px; font-family:Courier" x="174.5" y="167">•</text><text fill="black" style="font-size:10px; font-family:Courier" x="189.5" y="167">•</text><text fill="black" style="font-size:10px; font-family:Courier" x="204.5" y="167">•</text><text fill="black" style="font-size:10px; font-family:Courier" x="219.5" y="167">•</text><text fill="black" style="font-size:10px; font-family:Courier" x="234.5" y="167">•</text><text fill="black" style="font-size:10px; font-family:Courier" x="249.5" y="167">•</text><text fill="black" style="font-size:10px; font-family:Courier" x="264.5" y="167">•</text><text fill="black" style="font-size:10px; font-family:Courier" x="279.5" y="167">•</text><text fill="black" style="font-size:10px; font-family:Courier" x="294.5" y="167">•</text><text fill="black" style="font-size:10px; font-family:Courier" x="309.5" y="167">•</text><text fill="black" style="font-size:15px; font-family:Courier" x="323" y="168">G</text><text fill="black" style="font-size:10px; font-family:Courier" x="339.5" y="167">•</text><text fill="black" style="font-size:10px; font-family:Courier" x="354.5" y="167">•</text><text fill="black" style="font-size:15px; font-family:Courier" x="380" y="169">24</text><text fill="black" style="font-size:15px; font-family:Courier" x="540" y="169">7</text><text fill="black" style="font-size:15px; font-family:Courier" x="610" y="169">chr19:45172696-45172719(-)</text><text fill="black" style="font-size:15px; font-family:Courier" x="860" y="169">intron (TRAPPC6A, intron 1 of 5)</text><text fill="black" style="font-size:10px; font-family:Courier" x="24.5" y="182">•</text><text fill="black" style="font-size:10px; font-family:Courier" x="39.5" y="182">•</text><text fill="black" style="font-size:10px; font-family:Courier" x="54.5" y="182">•</text><text fill="black" style="font-size:10px; font-family:Courier" x="69.5" y="182">•</text><text fill="black" style="font-size:10px; font-family:Courier" x="84.5" y="182">•</text><text fill="black" style="font-size:10px; font-family:Courier" x="99.5" y="182">•</text><text fill="black" style="font-size:10px; font-family:Courier" x="114.5" y="182">•</text><rect fill="#FF5454" height="15" width="15" x="125" y="171" /><text fill="black" style="font-size:15px; font-family:Courier" x="128" y="183">A</text><text fill="black" style="font-size:10px; font-family:Courier" x="144.5" y="182">•</text><text fill="black" style="font-size:10px; font-family:Courier" x="159.5" y="182">•</text><text fill="black" style="font-size:10px; font-family:Courier" x="174.5" y="182">•</text><text fill="black" style="font-size:10px; font-family:Courier" x="189.5" y="182">•</text><text fill="black" style="font-size:10px; font-family:Courier" x="204.5" y="182">•</text><text fill="black" style="font-size:10px; font-family:Courier" x="219.5" y="182">•</text><text fill="black" style="font-size:10px; font-family:Courier" x="234.5" y="182">•</text><text fill="black" style="font-size:10px; font-family:Courier" x="249.5" y="182">•</text><text fill="black" style="font-size:10px; font-family:Courier" x="264.5" y="182">•</text><text fill="black" style="font-size:10px; font-family:Courier" x="279.5" y="182">•</text><rect fill="#26A8FF" height="15" width="15" x="290" y="171" /><text fill="black" style="font-size:15px; font-family:Courier" x="293" y="183">C</text><rect fill="#F5F500" height="15" width="15" x="305" y="171" /><text fill="black" style="font-size:15px; font-family:Courier" x="308" y="183">G</text><text fill="black" style="font-size:15px; font-family:Courier" x="323" y="183">G</text><rect fill="#00D118" height="15" width="15" x="335" y="171" /><text fill="black" style="font-size:15px; font-family:Courier" x="338" y="183">T</text><text fill="black" style="font-size:10px; font-family:Courier" x="354.5" y="182">•</text><text fill="black" style="font-size:15px; font-family:Courier" x="380" y="184">8</text><text fill="black" style="font-size:15px; font-family:Courier" x="540" y="184">4</text><text fill="black" style="font-size:15px; font-family:Courier" x="610" y="184">chr19:13795374-13795397(+)</text><text fill="black" style="font-size:15px; font-family:Courier" x="860" y="184">promoter-TSS (ZSWIM4)</text><rect fill="#FF5454" height="15" width="15" x="20" y="186" /><text fill="black" style="font-size:15px; font-family:Courier" x="23" y="198">A</text><text fill="black" style="font-size:10px; font-family:Courier" x="39.5" y="197">•</text><text fill="black" style="font-size:10px; font-family:Courier" x="54.5" y="197">•</text><text fill="black" style="font-size:10px; font-family:Courier" x="69.5" y="197">•</text><text fill="black" style="font-size:10px; font-family:Courier" x="84.5" y="197">•</text><text fill="black" style="font-size:10px; font-family:Courier" x="99.5" y="197">•</text><rect fill="#26A8FF" height="15" width="15" x="110" y="186" /><text fill="black" style="font-size:15px; font-family:Courier" x="113" y="198">C</text><rect fill="#00D118" height="15" width="15" x="125" y="186" /><text fill="black" style="font-size:15px; font-family:Courier" x="128" y="198">T</text><text fill="black" style="font-size:10px; font-family:Courier" x="144.5" y="197">•</text><text fill="black" style="font-size:10px; font-family:Courier" x="159.5" y="197">•</text><rect fill="#00D118" height="15" width="15" x="170" y="186" /><text fill="black" style="font-size:15px; font-family:Courier" x="173" y="198">T</text><text fill="black" style="font-size:10px; font-family:Courier" x="189.5" y="197">•</text><text fill="black" style="font-size:10px; font-family:Courier" x="204.5" y="197">•</text><text fill="black" style="font-size:10px; font-family:Courier" x="219.5" y="197">•</text><text fill="black" style="font-size:10px; font-family:Courier" x="234.5" y="197">•</text><text fill="black" style="font-size:10px; font-family:Courier" x="249.5" y="197">•</text><text fill="black" style="font-size:10px; font-family:Courier" x="264.5" y="197">•</text><text fill="black" style="font-size:10px; font-family:Courier" x="279.5" y="197">•</text><text fill="black" style="font-size:10px; font-family:Courier" x="294.5" y="197">•</text><text fill="black" style="font-size:10px; font-family:Courier" x="309.5" y="197">•</text><text fill="black" style="font-size:15px; font-family:Courier" x="323" y="198">G</text><text fill="black" style="font-size:10px; font-family:Courier" x="339.5" y="197">•</text><text fill="black" style="font-size:10px; font-family:Courier" x="354.5" y="197">•</text><text fill="black" style="font-size:15px; font-family:Courier" x="380" y="199">5</text><text fill="black" style="font-size:15px; font-family:Courier" x="540" y="199">4</text><text fill="black" style="font-size:15px; font-family:Courier" x="610" y="199">chr19:48749673-48749696(-)</text><text fill="black" style="font-size:15px; font-family:Courier" x="860" y="199">3' UTR (NM_000148, exon 4 of 4)</text></svg>